<svg width="80" height="80" viewBox="0 0 80 80" fill="none" xmlns="http://www.w3.org/2000/svg">
<path d="M40 80C62.0914 80 80 62.0914 80 40C80 17.9086 62.0914 0 40 0C17.9086 0 0 17.9086 0 40C0 62.0914 17.9086 80 40 80Z" fill="#324A5E"/>
<path d="M79.8869 43.0244L62.2222 25.3597C62.2222 25.3597 45.0081 37.225 37.052 42.7086L32.4578 38.1144L13.6027 50.9764L42.5436 79.9173C62.4477 78.6678 78.4034 62.8644 79.8869 43.0244Z" fill="#2B3B4E"/>
<path d="M54.6403 17.7778H32.5927V62.2222H62.2222V25.3597L54.6403 17.7778Z" fill="white"/>
<path d="M62.2222 25.3597L54.6403 17.7778H46.5547V62.2222H62.2222V25.3597Z" fill="#E6F3FF"/>
<path d="M54.6403 25.36L62.2222 25.3597L54.6403 17.7778V25.36Z" fill="#CFDBE6"/>
<path d="M48.6195 33.468H13.6027V50.9764H48.6195V33.468Z" fill="#2C9984"/>
<path d="M48.6195 33.468H31.1111V50.9764H48.6195V33.468Z" fill="#217F6D"/>
<path d="M47.3481 34.5831H14.8767V49.8631H47.3481V34.5831Z" fill="#90DFAA"/>
<path d="M47.3455 34.5831H31.1111V49.8634H47.3455V34.5831Z" fill="#7DC993"/>
<path d="M31.1111 47.4747C33.045 47.4747 34.6128 45.1231 34.6128 42.2222C34.6128 39.3213 33.045 36.9697 31.1111 36.9697C29.1771 36.9697 27.6094 39.3213 27.6094 42.2222C27.6094 45.1231 29.1771 47.4747 31.1111 47.4747Z" fill="#2C9984"/>
<path d="M34.6128 42.2222C34.6128 39.3214 33.0451 36.9697 31.1111 36.9697V47.4747C33.0451 47.4747 34.6128 45.123 34.6128 42.2222Z" fill="#217F6D"/>
</svg>
