<svg width="20" height="22" viewBox="0 0 20 22" fill="none" xmlns="http://www.w3.org/2000/svg">
<path d="M10 21.875C4.47967 21.8684 0.00606238 16.9754 0 10.9375V10.7188C0.109932 4.7081 4.6346 -0.0787781 10.1307 0.000982424C15.6268 0.0807429 20.0337 4.99723 19.9978 11.009C19.9619 17.0207 15.4966 21.8738 10 21.875ZM10 2.18752C5.58173 2.18752 2 6.10502 2 10.9375C2 15.77 5.58173 19.6875 10 19.6875C14.4183 19.6875 18 15.77 18 10.9375C17.9951 6.10727 14.4163 2.19294 10 2.18752ZM10 16.4063L8.59002 14.8641L11.17 12.0313H5.00001V9.84376H11.17L8.59002 7.01095L10 5.46877L15 10.9375L10 16.4063Z" fill="#F6F9FC"/>
</svg>
